<?xml version="1.0" encoding="UTF-8" standalone="no"?>
<svg
   xmlns:dc="http://purl.org/dc/elements/1.1/"
   xmlns:cc="http://creativecommons.org/ns#"
   xmlns:rdf="http://www.w3.org/1999/02/22-rdf-syntax-ns#"
   xmlns:svg="http://www.w3.org/2000/svg"
   xmlns="http://www.w3.org/2000/svg"
   xmlns:sodipodi="http://sodipodi.sourceforge.net/DTD/sodipodi-0.dtd"
   xmlns:inkscape="http://www.inkscape.org/namespaces/inkscape"
   width="16"
   height="16"
   fill="currentColor"
   class="bi bi-zoom-in"
   viewBox="0 0 16 16"
   version="1.1"
   id="svg8"
   sodipodi:docname="zoom-in.svg"
   inkscape:export-filename="D:\_WEB Projects\FindTime\FindTime26\favicon.png"
   inkscape:export-xdpi="96"
   inkscape:export-ydpi="96"
   inkscape:version="0.92.4 (5da689c313, 2019-01-14)">
  <metadata
     id="metadata14">
    <rdf:RDF>
      <cc:Work
         rdf:about="">
        <dc:format>image/svg+xml</dc:format>
        <dc:type
           rdf:resource="http://purl.org/dc/dcmitype/StillImage" />
        <dc:title></dc:title>
      </cc:Work>
    </rdf:RDF>
  </metadata>
  <defs
     id="defs12" />
  <sodipodi:namedview
     pagecolor="#ffffff"
     bordercolor="#666666"
     borderopacity="1"
     objecttolerance="10"
     gridtolerance="10"
     guidetolerance="10"
     inkscape:pageopacity="0"
     inkscape:pageshadow="2"
     inkscape:window-width="1600"
     inkscape:window-height="825"
     id="namedview10"
     showgrid="false"
     inkscape:zoom="7.7217835"
     inkscape:cx="8"
     inkscape:cy="8.92823"
     inkscape:window-x="-9"
     inkscape:window-y="-9"
     inkscape:window-maximized="1"
     inkscape:current-layer="svg8" />
  <path
     d="M6.5 12a5.5 5.5 0 1 0 0-11 5.5 5.5 0 0 0 0 11zM13 6.5a6.5 6.5 0 1 1-13 0 6.5 6.5 0 0 1 13 0z"
     id="path2"
     fill-rule="evenodd"
     style="fill:#4fa7bb;fill-opacity:1" />
  <path
     d="m 10.344,11.549846 c 0.02519,0.03451 0.05206,0.06729 0.08229,0.0992 l 3.232901,3.321198 A 0.83988477,0.86282375 0 0 0 14.84739,13.750463 L 11.614488,10.429265 A 0.84559264,0.86868752 0 0 0 11.517921,10.343 5.4900543,5.639999 0 0 1 10.344,11.550709 Z"
     id="path4"
     style="fill:#4fa7bb;fill-opacity:1;stroke-width:0.85110456"
     inkscape:connector-curvature="0" />
  <g
     transform="matrix(0.60393284,0,0,0.60393284,1.6259519,1.6617768)"
     id="g19">
    <path
       inkscape:connector-curvature="0"
       id="path2-9"
       d="M 8.515,1.019 A 7,7 0 0 0 8,1 V 0 a 8,8 0 0 1 0.589,0.022 z m 2.004,0.45 A 7.003,7.003 0 0 0 9.534,1.17 L 9.753,0.194 c 0.383,0.086 0.76,0.2 1.126,0.342 z m 1.37,0.71 A 7.01,7.01 0 0 0 11.45,1.909 l 0.493,-0.87 a 8.025,8.025 0 0 1 0.979,0.654 L 12.307,2.482 A 6.996,6.996 0 0 0 11.889,2.18 Z m 1.834,1.79 A 6.99,6.99 0 0 0 13.07,3.173 l 0.724,-0.69 c 0.27,0.285 0.52,0.59 0.747,0.91 z m 0.744,1.352 A 7.08,7.08 0 0 0 14.253,4.853 l 0.893,-0.45 a 7.976,7.976 0 0 1 0.45,1.088 l -0.95,0.313 A 7.023,7.023 0 0 0 14.467,5.321 Z m 0.53,2.507 a 6.991,6.991 0 0 0 -0.1,-1.025 l 0.985,-0.17 c 0.067,0.386 0.106,0.778 0.116,1.17 l -1,0.025 z m -0.131,1.538 c 0.033,-0.17 0.06,-0.339 0.081,-0.51 l 0.993,0.123 a 7.957,7.957 0 0 1 -0.23,1.155 L 14.746,9.867 c 0.046,-0.165 0.086,-0.332 0.12,-0.501 z m -0.952,2.379 c 0.184,-0.29 0.346,-0.594 0.486,-0.908 l 0.914,0.405 c -0.16,0.36 -0.345,0.706 -0.555,1.038 z M 12.95,12.95 c 0.122,-0.122 0.239,-0.248 0.35,-0.378 l 0.758,0.653 a 8.073,8.073 0 0 1 -0.401,0.432 z"
       style="stroke:#b00900;stroke-opacity:1;stroke-width:0.00662325;stroke-miterlimit:4;stroke-dasharray:none;fill:#b00900;fill-opacity:1" />
    <path
       inkscape:connector-curvature="0"
       id="path4-5"
       d="m 8,1 a 7,7 0 1 0 4.95,11.95 l 0.707,0.707 A 8.001,8.001 0 1 1 8,0 Z"
       style="stroke:#b00900;stroke-opacity:1;stroke-width:0.00662325;stroke-miterlimit:4;stroke-dasharray:none;fill:#b00900;fill-opacity:1" />
    <path
       inkscape:connector-curvature="0"
       id="path6"
       d="M 7.5,3 A 0.5,0.5 0 0 1 8,3.5 v 5.21 l 3.248,1.856 a 0.5,0.5 0 0 1 -0.496,0.868 l -3.5,-2 A 0.5,0.5 0 0 1 7,9 V 3.5 A 0.5,0.5 0 0 1 7.5,3 Z" />
  </g>
</svg>
