<?xml version="1.0" encoding="UTF-8" standalone="no"?>
<svg
   xmlns:dc="http://purl.org/dc/elements/1.1/"
   xmlns:cc="http://creativecommons.org/ns#"
   xmlns:rdf="http://www.w3.org/1999/02/22-rdf-syntax-ns#"
   xmlns:svg="http://www.w3.org/2000/svg"
   xmlns="http://www.w3.org/2000/svg"
   xmlns:sodipodi="http://sodipodi.sourceforge.net/DTD/sodipodi-0.dtd"
   xmlns:inkscape="http://www.inkscape.org/namespaces/inkscape"
   width="16"
   height="16"
   fill="currentColor"
   class="bi bi-check-square-fill"
   viewBox="0 0 16 16"
   version="1.1"
   id="svg4"
   sodipodi:docname="check-square-fill.svg"
   inkscape:version="0.92.4 (5da689c313, 2019-01-14)">
  <metadata
     id="metadata10">
    <rdf:RDF>
      <cc:Work
         rdf:about="">
        <dc:format>image/svg+xml</dc:format>
        <dc:type
           rdf:resource="http://purl.org/dc/dcmitype/StillImage" />
      </cc:Work>
    </rdf:RDF>
  </metadata>
  <defs
     id="defs8" />
  <sodipodi:namedview
     pagecolor="#ffffff"
     bordercolor="#666666"
     borderopacity="1"
     objecttolerance="10"
     gridtolerance="10"
     guidetolerance="10"
     inkscape:pageopacity="0"
     inkscape:pageshadow="2"
     inkscape:window-width="1600"
     inkscape:window-height="825"
     id="namedview6"
     showgrid="false"
     inkscape:zoom="32.338923"
     inkscape:cx="8"
     inkscape:cy="8"
     inkscape:window-x="-9"
     inkscape:window-y="-9"
     inkscape:window-maximized="1"
     inkscape:current-layer="svg4" />
  <path
     d="M 1.764216,0 A 1.764216,1.764216 0 0 0 0,1.764216 v 10.585296 a 1.764216,1.764216 0 0 0 1.764216,1.764216 h 10.585296 a 1.764216,1.764216 0 0 0 1.764216,-1.764216 V 1.764216 A 1.764216,1.764216 0 0 0 12.349512,0 Z m 8.847543,4.3840768 a 0.66158101,0.66158101 0 0 1 0.0097,0.9262134 L 7.1000874,9.7120092 A 0.66158101,0.66158101 0 0 1 6.1474107,9.7296514 L 3.814235,7.3955936 A 0.66158101,0.66158101 0 1 1 4.7492695,6.4605591 l 1.8471342,1.846252 3.0635611,-3.9033279 a 0.66158101,0.66158101 0 0 1 0.9526762,-0.019406 z"
     id="path2"
     style="fill:#1961d9;fill-opacity:1;stroke-width:0.88210803"
     inkscape:connector-curvature="0" />
</svg>
