<?xml version="1.0" encoding="UTF-8" standalone="no"?>
<svg
   xmlns:dc="http://purl.org/dc/elements/1.1/"
   xmlns:cc="http://creativecommons.org/ns#"
   xmlns:rdf="http://www.w3.org/1999/02/22-rdf-syntax-ns#"
   xmlns:svg="http://www.w3.org/2000/svg"
   xmlns="http://www.w3.org/2000/svg"
   xmlns:sodipodi="http://sodipodi.sourceforge.net/DTD/sodipodi-0.dtd"
   xmlns:inkscape="http://www.inkscape.org/namespaces/inkscape"
   width="16"
   height="16"
   fill="currentColor"
   class="bi bi-code-square"
   viewBox="0 0 16 16"
   version="1.1"
   id="svg6"
   sodipodi:docname="code-square.svg"
   inkscape:version="0.92.4 (5da689c313, 2019-01-14)">
  <metadata
     id="metadata12">
    <rdf:RDF>
      <cc:Work
         rdf:about="">
        <dc:format>image/svg+xml</dc:format>
        <dc:type
           rdf:resource="http://purl.org/dc/dcmitype/StillImage" />
      </cc:Work>
    </rdf:RDF>
  </metadata>
  <defs
     id="defs10" />
  <sodipodi:namedview
     pagecolor="#ffffff"
     bordercolor="#666666"
     borderopacity="1"
     objecttolerance="10"
     gridtolerance="10"
     guidetolerance="10"
     inkscape:pageopacity="0"
     inkscape:pageshadow="2"
     inkscape:window-width="1440"
     inkscape:window-height="873"
     id="namedview8"
     showgrid="false"
     inkscape:zoom="11.709564"
     inkscape:cx="-5.2737604"
     inkscape:cy="20.744542"
     inkscape:window-x="1591"
     inkscape:window-y="-9"
     inkscape:window-maximized="1"
     inkscape:current-layer="svg6" />
  <path
     d="M14 1a1 1 0 0 1 1 1v12a1 1 0 0 1-1 1H2a1 1 0 0 1-1-1V2a1 1 0 0 1 1-1h12zM2 0a2 2 0 0 0-2 2v12a2 2 0 0 0 2 2h12a2 2 0 0 0 2-2V2a2 2 0 0 0-2-2H2z"
     id="path2" />
  <path
     d="m 6.2999036,2.6472297 a 0.66189164,0.78958762 0 0 1 0,1.118056 L 2.7958494,7.9437835 6.2999036,12.122281 A 0.66272774,0.79058504 0 0 1 5.3626651,13.240336 L 1.3913153,8.5028115 a 0.66189164,0.78958762 0 0 1 0,-1.1180561 L 5.3626651,2.6472297 a 0.66189164,0.78958762 0 0 1 0.9372385,0 z m 3.0341114,0 a 0.66189164,0.78958762 0 0 0 0,1.118056 L 12.83807,7.9437835 9.334015,12.122281 a 0.66272774,0.79058504 0 0 0 0.937239,1.118055 l 3.97135,-4.7375245 a 0.66189164,0.78958762 0 0 0 0,-1.1180561 l -3.97135,-4.7375257 a 0.66189164,0.78958762 0 0 0 -0.937239,0 z"
     id="path4"
     inkscape:connector-curvature="0"
     style="stroke-width:1.44585121" />
  <text
     xml:space="preserve"
     style="font-style:normal;font-variant:normal;font-weight:bold;font-stretch:normal;font-size:4.18733342px;line-height:1.25;font-family:Alef;-inkscape-font-specification:'Alef, Bold';font-variant-ligatures:normal;font-variant-caps:normal;font-variant-numeric:normal;font-feature-settings:normal;text-align:center;letter-spacing:0px;word-spacing:0px;writing-mode:lr;text-anchor:middle;fill:#000000;fill-opacity:1;stroke:none;stroke-width:0.16688101;"
     x="-28.917627"
     y="-0.82996315"
     id="text16"><tspan
       sodipodi:role="line"
       id="tspan20">01</tspan><tspan
       sodipodi:role="line"
       id="tspan22">10</tspan></text>
</svg>
